<?xml version="1.0" encoding="iso-8859-1"?>
<!-- Generator: Adobe Illustrator 19.0.0, SVG Export Plug-In . SVG Version: 6.00 Build 0)  -->
<svg version="1.1" id="Capa_1" xmlns="http://www.w3.org/2000/svg" xmlns:xlink="http://www.w3.org/1999/xlink" x="0px" y="0px"
	 viewBox="0 0 512 512" style="enable-background:new 0 0 512 512;" xml:space="preserve">
<g>
	<g>
		<path d="M428.718,63.242C387.935,22.46,333.712,0,276.039,0C218.364,0,164.141,22.46,123.36,63.242
			c-40.362,40.362-62.777,93.883-63.234,150.892l-39.292,78.584c-1.756,3.512-0.512,7.784,2.855,9.804l36.43,21.858V440.36
			c0,4.15,3.365,7.515,7.515,7.515h72.642v56.611c0,4.15,3.365,7.515,7.515,7.515c4.15,0,7.515-3.365,7.515-7.515V440.36
			c0-4.15-3.365-7.515-7.515-7.515H75.147v-112.72c0-2.639-1.385-5.086-3.648-6.444l-34.112-20.467l36.966-73.932
			c0.522-1.044,0.794-2.193,0.794-3.361c0-110.772,90.12-200.892,200.892-200.892s200.892,90.12,200.892,200.892
			c0,62.247-28.164,119.964-77.27,158.356c-1.822,1.424-2.887,3.608-2.887,5.921v124.287c0,4.15,3.364,7.515,7.515,7.515
			s7.515-3.365,7.515-7.515V383.823c50.992-41.246,80.157-102.228,80.157-167.901C491.96,158.247,469.501,104.024,428.718,63.242z"
			/>
	</g>
</g>
<g>
	<g>
		<path d="M355.636,197.471c-1.411-3.901-5.716-5.921-9.623-4.508c-3.903,1.413-5.921,5.721-4.508,9.624
			c4.76,13.151,7.174,26.979,7.174,41.101c0,66.574-54.162,120.736-120.736,120.736s-120.736-54.162-120.736-120.736
			s54.162-120.736,120.736-120.736c35.182,0,68.541,15.304,91.523,41.987c2.709,3.145,7.455,3.498,10.598,0.789
			c3.145-2.708,3.498-7.453,0.789-10.598c-25.839-30.002-63.349-47.208-102.91-47.208c-74.861,0-135.765,60.904-135.765,135.765
			s60.904,135.765,135.765,135.765s135.765-60.904,135.765-135.765C363.709,227.816,360.993,212.266,355.636,197.471z"/>
	</g>
</g>
<g>
	<g>
		<path d="M328.102,216.72c-1.078-4.009-5.204-6.38-9.207-5.307c-4.008,1.077-6.384,5.199-5.307,9.207
			c2.01,7.48,3.029,15.242,3.029,23.07c0,48.895-39.779,88.673-88.673,88.673c-48.895,0-88.673-39.779-88.673-88.673
			s39.779-88.673,88.673-88.673c23.686,0,45.953,9.224,62.7,25.972c2.935,2.934,7.693,2.934,10.628-0.001
			c2.936-2.935,2.936-7.692,0.001-10.627c-19.586-19.586-45.628-30.373-73.329-30.373c-57.182,0-103.703,46.521-103.703,103.703
			c0,57.182,46.521,103.703,103.703,103.703s103.703-46.521,103.703-103.703C331.646,234.546,330.454,225.471,328.102,216.72z"/>
	</g>
</g>
<g>
	<g>
		<path d="M298.714,232.493c-0.644-4.1-4.483-6.898-8.591-6.257c-4.1,0.645-6.901,4.491-6.256,8.591
			c0.457,2.907,0.689,5.888,0.689,8.862c0,31.215-25.396,56.611-56.611,56.611s-56.611-25.396-56.611-56.611
			s25.396-56.611,56.611-56.611c13.12,0,25.907,4.59,36.007,12.924c3.198,2.641,7.935,2.189,10.577-1.013
			c2.642-3.2,2.189-7.938-1.013-10.579c-12.786-10.551-28.97-16.362-45.572-16.362c-39.502,0-71.64,32.138-71.64,71.64
			c0,39.502,32.138,71.64,71.64,71.64c39.502,0,71.64-32.138,71.64-71.64C299.585,239.937,299.292,236.169,298.714,232.493z"/>
	</g>
</g>
<g>
	<g>
		<path d="M260.747,240.833c-4.101-0.59-7.915,2.264-8.504,6.373c-1.716,11.989-12.163,21.03-24.298,21.03
			c-13.535,0-24.548-11.013-24.548-24.548s11.012-24.548,24.548-24.548c3.224,0,6.354,0.613,9.303,1.822
			c3.841,1.573,8.228-0.263,9.803-4.103c1.574-3.841-0.263-8.229-4.103-9.803c-4.767-1.955-9.815-2.945-15.004-2.945
			c-21.823,0-39.577,17.755-39.577,39.577c0,21.823,17.755,39.577,39.577,39.577c19.565,0,36.408-14.586,39.178-33.929
			C267.709,245.228,264.855,241.422,260.747,240.833z"/>
	</g>
</g>
<g>
	<g>
		<path d="M442.486,152.966l-26.78-17.682l-1.923-32.032c-0.155-2.6-1.647-4.934-3.941-6.167c-2.292-1.233-5.062-1.193-7.318,0.109
			l-41.649,24.047c-2.465,1.423-3.915,4.117-3.743,6.958l1.87,31.147l-134.813,77.835c-3.594,2.075-4.825,6.671-2.75,10.265
			c2.046,3.544,6.715,4.801,10.265,2.75l134.813-77.834l26.039,17.193c2.351,1.552,5.459,1.646,7.898,0.236l41.649-24.047
			c2.255-1.303,3.676-3.679,3.754-6.283C445.933,156.858,444.659,154.401,442.486,152.966z M372.412,131.936l27.097-15.646
			l1.141,19.009l-27.097,15.646L372.412,131.936z M396.96,174.454l-15.892-10.492l27.097-15.646l15.892,10.492L396.96,174.454z"/>
	</g>
</g>
<g>
</g>
<g>
</g>
<g>
</g>
<g>
</g>
<g>
</g>
<g>
</g>
<g>
</g>
<g>
</g>
<g>
</g>
<g>
</g>
<g>
</g>
<g>
</g>
<g>
</g>
<g>
</g>
<g>
</g>
</svg>
